<svg width="48" height="48" inkscape:version="1.1.1 (3bf5ae0d25, 2021-09-20)" sodipodi:docname="rettungsringIcon.svg" version="1.1" viewBox="0 0 12.7 12.7" xmlns="http://www.w3.org/2000/svg" xmlns:inkscape="http://www.inkscape.org/namespaces/inkscape" xmlns:sodipodi="http://sodipodi.sourceforge.net/DTD/sodipodi-0.dtd" xmlns:xlink="http://www.w3.org/1999/xlink">
 <sodipodi:namedview bordercolor="#111111" borderopacity="1" inkscape:current-layer="layer1" inkscape:cx="71.041771" inkscape:cy="137.50797" inkscape:document-units="mm" inkscape:pagecheckerboard="1" inkscape:pageopacity="0" inkscape:pageshadow="0" inkscape:window-height="1009" inkscape:window-maximized="1" inkscape:window-width="1920" inkscape:window-x="1912" inkscape:window-y="-8" inkscape:zoom="2.0762433" pagecolor="#ffffff" showgrid="false" units="px"/>
 <defs>
  <clipPath id="clipPath10360">
   <use width="100%" height="100%" xlink:href="#g10356"/>
  </clipPath>
 </defs>
 <g inkscape:groupmode="layer" inkscape:label="Ebene 1">
  <g transform="matrix(.074735 0 0 .079813 -3.8145 -47.493)" clip-path="url(#clipPath10360)">
   <g id="g10356" inkscape:label="Clip">
    <path d="m57.113 691.77c-0.79688-3.3789-1.3594-6.8203-1.6602-10.32-0.81641 0.1211-1.6484 0.23047-2.4688 0.35157 0.07031 3.5898 0.37891 7.1484 0.94922 10.699 1.0898-0.1211 2.1211-0.3711 3.1797-0.73047m5.6016 11.25c12.352-4.2812 24.699-8.5586 37.059-12.84-2.4883-5.6797-3.5-12-2.5898-18.402 0.05078-0.37891 0.12109-0.75 0.17969-1.1172-13.09-2.0312-26.027-4.9023-39.117-6.9726-1.0508 5.9922-1.3398 12.113-0.83984 18.184 0.61719 7.418 2.4688 14.52 5.3086 21.148m57.738 45.219c1.8125-12.258 3.2422-24.559 5.043-36.809-2.4531-0.60937-4.8203-1.4219-7.0703-2.4414-7.7891-3.5-14.062-9.6172-17.789-17-12.371 4.2891-24.742 8.5703-37.113 12.859 9.4531 20.441 28.5 36.07 50.602 41.941 2.0781 0.55859 4.1914 1.0312 6.3281 1.4492m1.6328-104.5c-4.3828-11.777-8.75-23.559-13.121-35.34-12.379 3.7109-23.891 10.02-32.941 19.512-8.918 9.3594-14.82 21.238-17.387 33.828 13.09 2.0703 26.027 4.9297 39.117 6.9726 2.9414-12.652 12.473-21.203 24.332-24.973m0.34765-40.32c-0.14843-0.66015-0.32812-1.2773-0.54687-1.918-0.0117 0-0.0234 8e-3 -0.0312 8e-3 -16.09 2.1328-32.73 3.1719-47.289 11.113-23.801 12.988-26.133 43.207-19.891 66.938 0.21875-0.0312 0.4375-0.0586 0.66016-0.0898-0.25-4.5-0.08984-9.0508 0.55078-13.641 2.4062-17.25 10.977-33.457 24.406-44.648 12.023-10 26.832-15.512 42.141-17.762m10 149.52c-0.0273-0.34766-0.0469-0.70704-0.0586-1.0664-10.488-0.69141-20.82-3.0703-30.219-7.0508-18.18-7.7109-32.641-22.152-40.48-39.582-0.42969-0.1875-0.63281-0.71875-0.51953-1.1875-1.4414-3.3516-2.6406-6.8008-3.5703-10.34-0.25 0.0899-0.49219 0.16797-0.73047 0.23828-0.07031 9.9688 0.84766 19.922 3.0703 29.66 2.2578 9.9102 6.4492 17.418 16.098 21.648 17.59 7.7109 37.5 8.2695 56.41 7.6797m6.5508-150.41c0-0.80859 0-1.6172-8e-3 -2.4297-5.1016 0.0312-10.203 0.22266-15.293 0.5625 0.30079 0.8086 0.54297 1.6289 0.73047 2.4883 0.82032-0.10937 1.6406-0.21093 2.4609-0.30078 4.0391-0.36719 8.0898-0.46875 12.109-0.32031m6.3516 152.2c1.1094 0.16797 1.3984-0.26171 0.89062-1.2695-0.0898-0.55078-0.18359-1.1016-0.27344-1.6523-3.8476 0.28906-7.7188 0.35937-11.578 0.17969 0.0391 0.98047 0.17969 1.9219 0.41797 2.8594 2.2031 0.26172 4.3906 0.38281 6.6016 0.28125 1.1016-0.0508 2.9219 0.0586 3.9414-0.39844m-1.9024-112.22c1.8711-12.367 3.7422-24.75 5.6094-37.117-7.3477-1.043-14.84-1.2109-22.168-0.54297-5.3906 0.57031-10.75 1.5703-15.98 3.0117 4.3711 11.77 8.7305 23.539 13.102 35.32 2.25-0.60937 4.5703-1.0586 6.9375-1.332 4.2031-0.34765 8.4297-0.1289 12.5 0.66016m15.43 105.38c-4.1172-12.09-8.25-24.18-12.367-36.27-6.2031 1.4492-12.812 1.5-19.062 0.23828-1.7969 12.23-3.2305 24.512-5.0273 36.73 11.887 2.0508 24.52 1.9492 36.457-0.69922m0.64063-44.543c12.16-9.7969 13.801-30.969 6.2305-43.988-7.0586-12.141-21.461-16.621-34.801-15.512-18.617 2.1328-33.891 16.262-31.937 36.031 0.35938 3.6484 1.3281 7.0391 2.7773 10.129 0.14062 0.15234 0.23047 0.33984 0.26953 0.5625 7.6016 15.488 27.402 23.359 44.242 19.23 0.25781-0.33203 0.75-0.46094 1.168-0.32032 4.332-1.2226 8.4336-3.2226 12.051-6.1328m29.191 30.641c12.621-10.168 18.59-24.391 21.5-40.02-13.102-1.9414-26.242-3.5586-39.34-5.5195-0.0117 0-0.0195-0.0117-0.0312-0.0117-2.1602 7.9531-6.8008 15.062-14.148 19.25-2.582 1.4726-5.3516 2.6016-8.2422 3.4219 4.1328 12.109 8.2617 24.219 12.383 36.328 10.168-2.5078 19.77-6.9102 27.879-13.449m-18.281-68.82c12.441-4.8086 24.879-9.6094 37.32-14.418-1.2578-3.7109-2.8008-7.3203-4.6914-10.781-10.797-19.75-30.699-30.781-52.066-34.281 0 0.0625 8e-3 0.11328 0 0.17187-1.8633 12.359-3.7305 24.711-5.6016 37.07 11.441 2.7695 21.27 10.191 25.039 22.238m40.121 26.84c2.1484-13 1.7188-26.719-2.1719-39.367-12.469 4.8203-24.93 9.6367-37.398 14.449 1.5781 6.2188 1.7305 13.039 0.32813 19.438 0.0312 0 0.0625-8e-3 0.0937-8e-3 13.027 1.9609 26.109 3.5586 39.148 5.4883m4.0508-29.238c0.45703-19.289-4.543-43.742-22.301-54.441-15.09-9.0898-34.359-7.4688-51.301-7.5078v1.8008c30.922 1.7578 60.109 18.598 69.48 50.098 0.98047 3.2891 1.7305 6.6523 2.2812 10.059 0.61719 0.043 1.2383 0.0312 1.8398-8e-3m-1.0508 45.891c0.98828-9.9805 1.1211-20.012 1.1094-30.031-0.0391 0.0117-0.0898 0.0117-0.12109 0.0195-0.26953 0.0391-0.48828-0.0195-0.67969-0.12109-0.17969 10.523-2.1094 21.062-5.5078 30.844-4.8203 13.859-14.551 25-27.293 32.188-10.02 5.6406-21.406 8.9492-33.09 10.082 0.043 0.17969 0.082 0.35938 0.1211 0.53906 9.5195 0.10938 19.07 0.34766 28.562-0.58203 9.418-0.91015 23.699-2.5781 29.297-11.289 5.5312-8.5781 6.6211-21.82 7.6016-31.648m3.9492-39.941c0-0.80079 0.16016-1.918 0-2.7188-0.25-1.2695-0.33984-1.1602-1.4297-1.2227-1.0195-0.0586-2 0.0508-3.0195 0.0234 0.53906 3.9492 0.82031 7.957 0.82031 11.969 0.0508-0.0117 0.0781-0.0391 0.1289-0.0508 2.4024-0.41797 3.5117-0.35938 3.5117-3.0977 0-1.6328-0.0117-3.2734-0.0117-4.9023m2.0117 4.3594c0 1.0625 0.37891 2.9922-0.14062 4-0.42969 0.85156-1.582 1.1523-2.7109 1.3125 0.0195 12.277-0.19922 24.59-1.8789 36.77-1.2305 8.9297-2.4726 20.828-8.4414 28.09-5.7891 7.0273-17.508 8.8203-25.969 9.9297-10.602 1.3906-21.32 1.1289-31.992 1.0078 0.0117 1.1211-0.41016 2.0117-1.9766 2.3828-3.9805 0.92969-8.3633 0.71875-12.383 0.1875-0.44922-0.0586-0.8086-0.25781-0.96094-0.73047-0.10938-0.36719-0.20703-0.72656-0.28906-1.0977-20.059 0.64844-43.578 0.51953-61.488-9.7812-7.6523-4.4102-11.129-11.969-13.102-20.27-2.3711-9.9805-3.3477-20.25-3.3086-30.488-0.58203 0.0898-1.1602 0.16016-1.7695 0.19922-0.40234 0.0195-0.89063-0.33203-0.96094-0.74219-0.73047-4.2773-1.1289-8.5703-1.1602-12.91-0.01172-0.39844 0.30859-0.89844 0.73047-0.95704 0.32813-0.0508 0.66016-0.10156 0.98828-0.14062-6.0078-23.09-4.2891-52.859 17.66-67.039 15.172-9.8008 33.562-10.953 50.949-13.211 0.0703-0.44922 0.41016-0.80078 0.95312-0.83984 5.9102-0.42188 11.809-0.64063 17.73-0.66016 0.44922 0 0.81641 0.32031 0.9375 0.73047 18.062 0.0508 39.23-1.6992 54.73 9.3281 16.531 11.75 21.379 35.332 20.941 54.5 0.1289 0 0.25-8e-3 0.3789-8e-3 0.5 0 0.96875-0.0117 1.4102 0.25781 1.6406 0.99219 1.1094 3.7227 1.1094 5.2812 0 1.6289 0 3.2578 0.0117 4.8984"/>
    <path d="m217.48 666c0.16016 0.80078 0 1.918 0 2.7188 0 1.6289 0.0117 3.2695 0.0117 4.9023 0 2.7383-1.1094 2.6797-3.5117 3.0977-0.0508 0.0117-0.0781 0.0391-0.1289 0.0508 0-4.0117-0.28125-8.0195-0.82031-11.969 1.0195 0.0273 2-0.082 3.0195-0.0234 1.0898 0.0625 1.1797-0.0469 1.4297 1.2227" fill="#3a5461"/>
    <path d="m208.36 652.64c3.8906 12.648 4.3203 26.367 2.1719 39.367-13.039-1.9297-26.121-3.5274-39.148-5.4883-0.0312 0-0.0625 8e-3 -0.0937 8e-3 1.4023-6.3984 1.25-13.219-0.32813-19.438 12.469-4.8125 24.93-9.6289 37.398-14.449" fill="#a40"/>
    <path d="m207.73 650.75c-12.441 4.8086-24.879 9.6094-37.32 14.418-3.7695-12.047-13.598-19.469-25.039-22.238 1.8711-12.359 3.7383-24.711 5.6016-37.07 8e-3 -0.0586 0-0.10937 0-0.17187 21.367 3.5 41.27 14.531 52.066 34.281 1.8906 3.4609 3.4336 7.0703 4.6914 10.781" fill="#fffae3"/>
    <path d="m210.2 693.97c-2.9102 15.629-8.8789 29.852-21.5 40.02-8.1094 6.5391-17.711 10.941-27.879 13.449-4.1211-12.109-8.25-24.219-12.383-36.328 2.8906-0.82031 5.6602-1.9492 8.2422-3.4219 7.3477-4.1875 11.988-11.297 14.148-19.25 0.0117 0 0.0195 0.0117 0.0312 0.0117 13.098 1.9609 26.238 3.5781 39.34 5.5195" fill="#fffae3"/>
    <path d="m146.5 711.62c4.1172 12.09 8.25 24.18 12.367 36.27-11.938 2.6484-24.57 2.75-36.457 0.69922 1.7969-12.219 3.2305-24.5 5.0273-36.73 6.25 1.2617 12.859 1.2109 19.062-0.23828" fill="#fc0"/>
    <path d="m149.04 605.39c-1.8672 12.367-3.7383 24.75-5.6094 37.117-4.0703-0.78906-8.2969-1.0078-12.5-0.66016-2.3672 0.27344-4.6875 0.72266-6.9375 1.332-4.3711-11.781-8.7305-23.551-13.102-35.32 5.2305-1.4414 10.59-2.4414 15.98-3.0117 7.3281-0.66797 14.82-0.5 22.168 0.54297" fill="#fc0"/>
    <path d="m146.23 753.46c0.50781 1.0078 0.21875 1.4375-0.89062 1.2695-1.0195 0.45704-2.8398 0.34766-3.9414 0.39844-2.2109 0.10156-4.3984-0.0195-6.6016-0.28125-0.23828-0.9375-0.37891-1.8789-0.41797-2.8594 3.8594 0.17968 7.7305 0.10937 11.578-0.17969 0.0898 0.55078 0.1836 1.1016 0.27344 1.6523" fill="#3a5461"/>
    <path d="m138.98 600.1c8e-3 0.8125 8e-3 1.6211 8e-3 2.4297-4.0195-0.14844-8.0703-0.0469-12.109 0.32031-0.82031 0.0899-1.6406 0.19141-2.4609 0.30078-0.1875-0.85937-0.42968-1.6797-0.73047-2.4883 5.0898-0.33984 10.191-0.53125 15.293-0.5625" fill="#3a5461"/>
    <path d="m108.96 608.4c4.3711 11.781 8.7383 23.562 13.121 35.34-11.859 3.7695-21.391 12.32-24.332 24.973-13.09-2.043-26.027-4.9023-39.117-6.9726 2.5664-12.59 8.4688-24.469 17.387-33.828 9.0508-9.4922 20.562-15.801 32.941-19.512" fill="#fffae3"/>
    <path d="m125.5 711.43c-1.8008 12.25-3.2305 24.551-5.043 36.809-2.1367-0.41797-4.25-0.89063-6.3281-1.4492-22.102-5.8711-41.148-21.5-50.602-41.941 12.371-4.2891 24.742-8.5703 37.113-12.859 3.7266 7.3828 10 13.5 17.789 17 2.25 1.0195 4.6172 1.832 7.0703 2.4414" fill="#fffae3"/>
    <path d="m99.773 690.18c-12.359 4.2812-24.707 8.5586-37.059 12.84-2.8398-6.6289-4.6914-13.73-5.3086-21.148-0.5-6.0703-0.21094-12.191 0.83984-18.184 13.09 2.0703 26.027 4.9414 39.117 6.9726-0.05859 0.36719-0.12891 0.73828-0.17969 1.1172-0.91016 6.4023 0.10156 12.723 2.5898 18.402" fill="#a40"/>
    <path d="m55.453 681.45c0.30078 3.5 0.86328 6.9414 1.6602 10.32-1.0586 0.35937-2.0898 0.60937-3.1797 0.73047-0.57031-3.5508-0.87891-7.1094-0.94922-10.699 0.82031-0.1211 1.6523-0.23047 2.4688-0.35157" display="none" fill="#3a5461"/>
   </g>
  </g>
 </g>
</svg>
